<svg xmlns="http://www.w3.org/2000/svg" viewBox="0 0 512 512" width="128" height="128">
  <defs>
    <radialGradient id="bg" cx="42%" cy="36%" r="62%">
      <stop offset="0%" stop-color="#321b78"/>
      <stop offset="100%" stop-color="#0b0921"/>
    </radialGradient>
    <linearGradient id="hg" x1="15%" y1="0%" x2="85%" y2="100%">
      <stop offset="0%"   stop-color="#f9efd4"/>
      <stop offset="45%"  stop-color="#e8b84b"/>
      <stop offset="100%" stop-color="#9e5f0e"/>
    </linearGradient>
    <linearGradient id="sg" x1="20%" y1="0%" x2="80%" y2="100%">
      <stop offset="0%"   stop-color="#fffde0"/>
      <stop offset="100%" stop-color="#f5a200"/>
    </linearGradient>
    <filter id="starGlow" x="-60%" y="-60%" width="220%" height="220%">
      <feGaussianBlur in="SourceGraphic" stdDeviation="14" result="blur"/>
      <feMerge><feMergeNode in="blur"/><feMergeNode in="SourceGraphic"/></feMerge>
    </filter>
    <filter id="hammerShadow">
      <feDropShadow dx="4" dy="6" stdDeviation="14" flood-color="#000" flood-opacity="0.45"/>
    </filter>
  </defs>
  <circle cx="256" cy="256" r="252" fill="url(#bg)"/>
  <circle cx="256" cy="256" r="247" fill="none" stroke="#7050c8" stroke-width="5" opacity="0.45"/>
  <g transform="translate(256,256) rotate(-45)" filter="url(#hammerShadow)">
    <rect x="-14" y="32" width="28" height="178" rx="10" fill="url(#hg)"/>
    <ellipse cx="0" cy="208" rx="14" ry="8" fill="#7a4010"/>
    <rect x="-66" y="-96" width="132" height="104" rx="18" fill="url(#hg)"/>
    <rect x="-66" y="-96" width="132" height="26" rx="18" fill="white" opacity="0.16"/>
    <rect x="-66" y="-8" width="132" height="7" rx="3" fill="#7a4010" opacity="0.38"/>
  </g>
  <circle cx="183" cy="179" r="40" fill="#f5c020" opacity="0.12"/>
  <g filter="url(#starGlow)">
    <path d="M183,144 L192,167 L218,179 L192,191 L183,214 L174,191 L148,179 L174,167 Z" fill="url(#sg)"/>
    <path d="M183,155 L189,169 L204,179 L189,189 L183,203 L177,189 L162,179 L177,169 Z" fill="white" opacity="0.42"/>
  </g>
  <circle cx="352" cy="126" r="5.5" fill="#f5c820" opacity="0.75"/>
  <circle cx="392" cy="275" r="4"   fill="#b898f8" opacity="0.55"/>
</svg>
